<svg xmlns="http://www.w3.org/2000/svg" viewBox="0 0 800 500"><rect width="800" height="500" fill="#eef1ed"/><path d="M0 160H800M0 350H800M190 0V500M590 0V500" stroke="#d2d8d1" stroke-width="34"/><path d="M190 160C300 230 360 300 460 250S540 170 590 260M190 350C330 310 430 380 590 350" fill="none" stroke="#b7cdb9" stroke-width="10" stroke-dasharray="14 12"/><path d="M0 440C140 400 250 470 380 435S650 400 800 440V500H0Z" fill="#cadfe3"/><g fill="#fff" stroke="#768a83" stroke-width="3"><rect x="55" y="185" width="170" height="65" rx="6"/><rect x="270" y="115" width="190" height="82" rx="6"/><rect x="625" y="180" width="125" height="72" rx="6"/><rect x="70" y="300" width="150" height="60" rx="6"/><rect x="270" y="315" width="230" height="65" rx="32"/><rect x="625" y="305" width="125" height="65" rx="6"/></g><g fill="#234e70"><circle cx="245" cy="215" r="8"/><circle cx="520" cy="145" r="8"/><circle cx="575" cy="340" r="8"/><circle cx="250" cy="350" r="8"/></g><g fill="#30423e" font-family="Arial,sans-serif" font-size="14" font-weight="700"><text x="78" y="222">AUDITORIUM</text><text x="294" y="160">INNOVATION LAB</text><text x="646" y="220">BUSINESS SCHOOL</text><text x="103" y="336">LIBRARY</text><text x="334" y="353">CENTRAL GROUNDS</text><text x="645" y="342">SPORTS COMPLEX</text></g></svg>